<svg xmlns="http://www.w3.org/2000/svg" viewBox="0 0 317.68 140.55"><defs><style>.cls-1,.cls-3,.cls-4{fill:none;stroke:#666766;stroke-linecap:round;}.cls-1{stroke-miterlimit:10;stroke-width:11px;}.cls-2{fill:#666766;}.cls-3,.cls-4{stroke-linejoin:round;}.cls-3{stroke-width:10.84px;}.cls-4{stroke-width:10.71px;}.cls-5{fill:#ef473a;}</style></defs><g id="Layer_2" data-name="Layer 2"><path class="cls-1" d="M314.52,5.5V67.59a30.21,30.21,0,1,1-60.41,0c0-16.52,11.86-30.14,28.39-30.2V100s2.55,35.1-30.54,35.1" transform="translate(-2.34)"></path><path class="cls-1" d="M227.79,30.76V67.59a30.21,30.21,0,1,1-60.41,0c0-16.52,11.86-30.14,28.39-30.2V100s2.55,35.1-30.54,35.1" transform="translate(-2.34)"></path><circle class="cls-2" cx="222.17" cy="8.79" r="8.79"></circle><circle class="cls-2" cx="201.96" cy="8.79" r="8.79"></circle><path class="cls-3" d="M136.46,47.48V82.14a16,16,0,0,1-32,0V47.48" transform="translate(-2.34)"></path><path class="cls-3" d="M72.38,47.48V82.14a16,16,0,1,0,32,0V47.48" transform="translate(-2.34)"></path><path class="cls-4" d="M72.32,47.48v55.35a32.31,32.31,0,0,1-64.62,0V47.51" transform="translate(-2.34)"></path><path class="cls-5" d="M31.49,78.5" transform="translate(-2.34)"></path><path class="cls-5" d="M32.14,48.88" transform="translate(-2.34)"></path></g><g id="Layer_3" data-name="Layer 3"><path class="cls-5" d="M63.3,44.25A53.27,53.27,0,0,0,30.24,82.52c-6.82,29.93,7.5,28.23,9.77,28.32A11.11,11.11,0,0,0,50.61,99.1C50.42,89.53,47.39,57.7,63.3,44.25Z" transform="translate(-2.34)"></path><path class="cls-5" d="M15.43,44.25s10.47,6.41,13,31.37c0,0,3.48-11,8.33-16.56C36.75,59.06,30.21,49.79,15.43,44.25Z" transform="translate(-2.34)"></path><path class="cls-5" d="M39.41,55.53s5.09-5.59,7.2-6.65a13.74,13.74,0,0,0-14.28,0A60,60,0,0,1,39.41,55.53Z" transform="translate(-2.34)"></path><path class="cls-5" d="M50,46.65A16,16,0,0,0,39.47,43a16.34,16.34,0,0,0-10.62,3.66s-10.31-6.11-18.64-8-6.42-9.3-5-11.21,5.82-5.22,10.55-.9c0,0-3.42-10.08,2.76-13.67s11.21,1.2,12.29,2.69c0,0,1-10.73,8.7-10.73s8.27,10.67,8.27,10.67S53.67,8.82,59.91,13,63,26.45,63,26.45s6.77-5.58,10.79,2.45-5.16,9.9-5.16,9.9S54.68,43.56,50,46.65Z" transform="translate(-2.34)"></path></g></svg>